# Blender 3.6.4
# www.blender.org
mtllib SonenBlumne.neckobj.mtl
o Zylinder
v -0.170000 2.094187 0.000000
v -0.147224 2.094187 0.085000
v -0.085000 2.094187 0.147224
v 0.170000 0.857984 0.000000
v 0.170000 1.637984 0.000000
v 0.147224 0.857984 0.085000
v 0.147224 1.637984 0.085000
v 0.085000 0.857984 0.147224
v 0.085000 1.637984 0.147224
v 0.000000 0.857984 0.170000
v 0.000000 1.637984 0.170000
v -0.085000 0.857984 0.147224
v -0.085000 1.637984 0.147224
v -0.147224 0.857984 0.085000
v -0.147224 1.637984 0.085000
v -0.170000 0.857984 0.000000
v -0.170000 1.637984 0.000000
v 0.000000 2.094187 0.170000
v 0.085000 2.094187 0.147224
v 0.147224 2.094187 0.085000
v 0.170000 2.094187 0.000000
v -0.170000 2.579635 0.000000
v -0.147224 2.579635 0.085000
v -0.085000 2.579635 0.147224
v 0.000000 2.579635 0.170000
v 0.085000 2.579635 0.147224
v 0.147224 2.579635 0.085000
v 0.170000 2.579635 0.000000
v -0.170000 3.123569 0.000000
v -0.147224 3.123569 0.085000
v -0.085000 3.123569 0.147224
v 0.000000 3.123569 0.170000
v 0.085000 3.123569 0.147224
v 0.147224 3.123569 0.085000
v 0.170000 3.123569 0.000000
v -0.170000 3.755236 0.000000
v -0.147224 3.755236 0.085000
v -0.085000 3.755236 0.147224
v 0.000000 3.755236 0.170000
v 0.085000 3.755236 0.147224
v 0.147224 3.755236 0.085000
v 0.170000 3.755236 0.000000
v -0.170000 4.406053 0.000000
v -0.147224 4.406053 0.085000
v -0.085000 4.406053 0.147224
v 0.000000 4.406053 0.170000
v 0.085000 4.406053 0.147224
v 0.147224 4.406053 0.085000
v 0.170000 4.406053 0.000000
v -0.170000 5.142096 0.000000
v -0.147224 5.142096 0.085000
v -0.085000 5.142096 0.147224
v 0.000000 5.142096 0.170000
v 0.085000 5.142096 0.147224
v 0.147224 5.142096 0.085000
v 0.170000 5.142096 0.000000
v -0.201027 5.191828 -0.000000
v -0.174094 5.191828 0.100513
v -0.100513 5.191828 0.174094
v 0.000000 5.191828 0.201027
v 0.100513 5.191828 0.174094
v 0.174094 5.191828 0.100513
v 0.201027 5.191828 -0.000000
v -0.147224 2.094187 -0.085000
v -0.085000 2.094187 -0.147224
v 0.147224 0.857984 -0.085000
v 0.147224 1.637984 -0.085000
v 0.085000 0.857984 -0.147224
v 0.085000 1.637984 -0.147224
v 0.000000 0.857984 -0.170000
v 0.000000 1.637984 -0.170000
v -0.085000 0.857984 -0.147224
v -0.085000 1.637984 -0.147224
v -0.147224 0.857984 -0.085000
v -0.147224 1.637984 -0.085000
v 0.000000 2.094187 -0.170000
v 0.085000 2.094187 -0.147224
v 0.147224 2.094187 -0.085000
v -0.147224 2.579635 -0.085000
v -0.085000 2.579635 -0.147224
v 0.000000 2.579635 -0.170000
v 0.085000 2.579635 -0.147224
v 0.147224 2.579635 -0.085000
v -0.147224 3.123569 -0.085000
v -0.085000 3.123569 -0.147224
v 0.000000 3.123569 -0.170000
v 0.085000 3.123569 -0.147224
v 0.147224 3.123569 -0.085000
v -0.147224 3.755236 -0.085000
v -0.085000 3.755236 -0.147224
v 0.000000 3.755236 -0.170000
v 0.085000 3.755236 -0.147224
v 0.147224 3.755236 -0.085000
v -0.147224 4.406053 -0.085000
v -0.085000 4.406053 -0.147224
v 0.000000 4.406053 -0.170000
v 0.085000 4.406053 -0.147224
v 0.147224 4.406053 -0.085000
v -0.147224 5.142096 -0.085000
v -0.085000 5.142096 -0.147224
v 0.000000 5.142096 -0.170000
v 0.085000 5.142096 -0.147224
v 0.147224 5.142096 -0.085000
v -0.174094 5.191828 -0.100513
v -0.100513 5.191828 -0.174094
v 0.000000 5.191828 -0.201027
v 0.100513 5.191828 -0.174094
v 0.174094 5.191828 -0.100513
v -0.314514 5.279401 -0.000000
v -0.272377 5.279401 0.157257
v -0.157257 5.279401 0.272377
v 0.000000 5.279401 0.314514
v 0.157257 5.279401 0.272377
v 0.272377 5.279401 0.157257
v 0.314514 5.279401 -0.000000
v -0.272377 5.279401 -0.157257
v -0.157257 5.279401 -0.272377
v 0.000000 5.279401 -0.314514
v 0.157257 5.279401 -0.272377
v 0.272377 5.279401 -0.157257
v -0.465904 5.366974 -0.000000
v -0.403485 5.366974 0.232952
v -0.232952 5.366974 0.403485
v 0.000000 5.366974 0.465904
v 0.232952 5.366974 0.403485
v 0.403485 5.366974 0.232952
v 0.465904 5.366974 -0.000000
v -0.403485 5.366974 -0.232952
v -0.232952 5.366974 -0.403485
v 0.000000 5.366974 -0.465904
v 0.232952 5.366974 -0.403485
v 0.403485 5.366974 -0.232952
v -0.583136 5.416677 -0.000000
v -0.505011 5.416677 0.291568
v -0.291568 5.416677 0.505011
v -0.000000 5.416677 0.583136
v 0.291568 5.416677 0.505011
v 0.505011 5.416677 0.291568
v 0.583136 5.416677 -0.000000
v -0.505011 5.416677 -0.291568
v -0.291568 5.416677 -0.505011
v -0.000000 5.416677 -0.583136
v 0.291568 5.416677 -0.505011
v 0.505011 5.416677 -0.291568
v -0.607951 5.456722 -0.000000
v -0.526501 5.456722 0.303975
v -0.303976 5.456722 0.526501
v -0.000000 5.456722 0.607951
v 0.303975 5.456722 0.526501
v 0.526501 5.456722 0.303975
v 0.607951 5.456722 -0.000000
v -0.526501 5.456722 -0.303975
v -0.303976 5.456722 -0.526501
v -0.000000 5.456722 -0.607951
v 0.303975 5.456722 -0.526501
v 0.526501 5.456722 -0.303975
v -0.594370 5.499436 -0.000000
v -0.514739 5.499436 0.297185
v -0.297185 5.499436 0.514739
v -0.000000 5.499436 0.594370
v 0.297185 5.499436 0.514739
v 0.514739 5.499436 0.297185
v 0.594370 5.499436 -0.000000
v -0.514739 5.499436 -0.297185
v -0.297185 5.499436 -0.514739
v -0.000000 5.499436 -0.594370
v 0.297185 5.499436 -0.514739
v 0.514739 5.499436 -0.297185
v -0.460987 5.566178 0.000000
v -0.399226 5.566178 0.230493
v -0.230493 5.566178 0.399226
v -0.000000 5.566178 0.460987
v 0.230493 5.566178 0.399226
v 0.399226 5.566178 0.230493
v 0.460987 5.566178 0.000000
v -0.399226 5.566178 -0.230493
v -0.230493 5.566178 -0.399226
v -0.000000 5.566178 -0.460987
v 0.230493 5.566178 -0.399226
v 0.399226 5.566178 -0.230493
v -0.248189 5.592875 0.000000
v -0.214938 5.592875 0.124095
v -0.124095 5.592875 0.214938
v -0.000000 5.592875 0.248189
v 0.124095 5.592875 0.214938
v 0.214938 5.592875 0.124095
v 0.248189 5.592875 0.000000
v -0.214938 5.592875 -0.124095
v -0.124095 5.592875 -0.214938
v -0.000000 5.592875 -0.248189
v 0.124095 5.592875 -0.214938
v 0.214938 5.592875 -0.124095
v -0.015146 5.600883 0.000000
v -0.013117 5.600883 0.007573
v -0.007573 5.600883 0.013117
v -0.000000 5.600883 0.015146
v 0.007573 5.600883 0.013117
v 0.013117 5.600883 0.007573
v 0.015146 5.600883 0.000000
v -0.013117 5.600883 -0.007573
v -0.007573 5.600883 -0.013117
v -0.000000 5.600883 -0.015146
v 0.007573 5.600883 -0.013117
v 0.013117 5.600883 -0.007573
vn -0.2588 -0.0000 0.9659
vn -0.0000 -0.0000 1.0000
vn 0.8660 -0.0000 0.5000
vn 1.0000 -0.0000 -0.0000
vn 0.9659 -0.0000 0.2588
vn 0.7071 -0.0000 0.7071
vn 0.2588 -0.0000 0.9659
vn -0.7071 -0.0000 0.7071
vn -0.8660 -0.0000 0.5000
vn -0.9659 -0.0000 0.2588
vn -1.0000 -0.0000 -0.0000
vn -0.5000 -0.0000 0.8660
vn 0.5000 -0.0000 0.8660
vn -0.4242 -0.5293 0.7348
vn -0.0000 -0.5293 0.8484
vn -0.0000 -0.6860 0.7276
vn -0.3638 -0.6860 0.6301
vn 0.4242 -0.5293 0.7348
vn 0.3638 -0.6860 0.6301
vn 0.7348 -0.5293 0.4242
vn 0.6301 -0.6860 0.3638
vn -0.7348 -0.5293 0.4242
vn -0.6301 -0.6860 0.3638
vn -0.8484 -0.5293 -0.0000
vn -0.7276 -0.6860 -0.0000
vn 0.8484 -0.5293 -0.0000
vn 0.7276 -0.6860 -0.0000
vn -0.2588 -0.0000 -0.9659
vn -0.0000 -0.0000 -1.0000
vn 0.8660 -0.0000 -0.5000
vn 0.9659 -0.0000 -0.2588
vn 0.7071 -0.0000 -0.7071
vn 0.2588 -0.0000 -0.9659
vn -0.7071 -0.0000 -0.7071
vn -0.8660 -0.0000 -0.5000
vn -0.9659 -0.0000 -0.2588
vn -0.5000 -0.0000 -0.8660
vn 0.5000 -0.0000 -0.8660
vn -0.4242 -0.5293 -0.7348
vn -0.3638 -0.6860 -0.6301
vn -0.0000 -0.6860 -0.7276
vn -0.0000 -0.5293 -0.8484
vn 0.3638 -0.6860 -0.6301
vn 0.4242 -0.5293 -0.7348
vn 0.6301 -0.6860 -0.3638
vn 0.7348 -0.5293 -0.4242
vn -0.7348 -0.5293 -0.4242
vn -0.6301 -0.6860 -0.3638
vn 0.2747 -0.8356 -0.4758
vn 0.4758 -0.8356 -0.2747
vn 0.5494 -0.8356 -0.0000
vn 0.4758 -0.8356 0.2747
vn -0.0000 -0.8356 -0.5494
vn -0.2747 -0.8356 0.4758
vn -0.4758 -0.8356 0.2747
vn -0.4758 -0.8356 -0.2747
vn -0.2747 -0.8356 -0.4758
vn -0.0000 -0.8356 0.5494
vn -0.5494 -0.8356 -0.0000
vn 0.2747 -0.8356 0.4758
vn -0.2190 -0.8989 0.3794
vn -0.3794 -0.8989 0.2190
vn -0.2190 -0.8989 -0.3794
vn -0.0000 -0.8989 -0.4381
vn -0.4381 -0.8989 -0.0000
vn -0.3794 -0.8989 -0.2190
vn -0.0000 -0.8989 0.4381
vn 0.2190 -0.8989 -0.3794
vn 0.3794 -0.8989 -0.2190
vn 0.3794 -0.8989 0.2190
vn 0.2190 -0.8989 0.3794
vn 0.4381 -0.8989 -0.0000
vn -0.0000 -0.9207 0.3903
vn -0.1952 -0.9207 0.3380
vn 0.1952 -0.9207 -0.3380
vn 0.3380 -0.9207 -0.1952
vn -0.3380 -0.9207 0.1952
vn -0.3903 -0.9207 -0.0000
vn -0.0000 -0.9207 -0.3903
vn 0.3380 -0.9207 0.1952
vn 0.1952 -0.9207 0.3380
vn 0.3903 -0.9207 -0.0000
vn -0.3380 -0.9207 -0.1952
vn -0.1952 -0.9207 -0.3380
vn -0.4250 -0.5267 0.7361
vn -0.0000 -0.5267 0.8500
vn 0.7361 -0.5267 -0.4250
vn 0.4250 -0.5267 -0.7361
vn -0.8500 -0.5267 -0.0000
vn -0.7361 -0.5267 0.4250
vn -0.0000 -0.5267 -0.8500
vn 0.4250 -0.5267 0.7361
vn 0.7361 -0.5267 0.4250
vn 0.8500 -0.5267 -0.0000
vn -0.4250 -0.5267 -0.7361
vn -0.7361 -0.5267 -0.4250
vn -0.8253 0.3030 -0.4765
vn -0.9530 0.3030 -0.0000
vn -0.4765 0.3030 0.8253
vn -0.0000 0.3030 0.9530
vn 0.8253 0.3030 -0.4765
vn 0.4765 0.3030 -0.8253
vn -0.8253 0.3030 0.4765
vn -0.0000 0.3030 -0.9530
vn 0.4765 0.3030 0.8253
vn 0.8253 0.3030 0.4765
vn 0.9530 0.3030 -0.0000
vn -0.4765 0.3030 -0.8253
vn -0.3875 0.8943 -0.2237
vn -0.4475 0.8943 -0.0000
vn -0.3154 0.9489 -0.0000
vn -0.2732 0.9489 -0.1577
vn -0.2237 0.8943 0.3875
vn -0.0000 0.8943 0.4475
vn -0.0000 0.9489 0.3154
vn -0.1577 0.9489 0.2732
vn 0.3875 0.8943 -0.2237
vn 0.2237 0.8943 -0.3875
vn 0.1577 0.9489 -0.2732
vn 0.2732 0.9489 -0.1577
vn -0.3875 0.8943 0.2237
vn -0.2732 0.9489 0.1577
vn -0.0000 0.8943 -0.4475
vn -0.0000 0.9489 -0.3154
vn 0.2237 0.8943 0.3875
vn 0.3875 0.8943 0.2237
vn 0.2732 0.9489 0.1577
vn 0.1577 0.9489 0.2732
vn 0.4475 0.8943 -0.0000
vn 0.3154 0.9489 -0.0000
vn -0.2237 0.8943 -0.3875
vn -0.1577 0.9489 -0.2732
vn -0.0435 0.9962 -0.0753
vn -0.0000 0.9962 -0.0870
vn -0.0870 0.9962 -0.0000
vn -0.0753 0.9962 -0.0435
vn -0.0000 0.9962 0.0870
vn -0.0435 0.9962 0.0753
vn 0.0435 0.9962 -0.0753
vn 0.0753 0.9962 -0.0435
vn -0.0753 0.9962 0.0435
vn 0.0753 0.9962 0.0435
vn 0.0435 0.9962 0.0753
vn 0.0870 0.9962 -0.0000
vn -0.0100 0.9998 0.0174
vn -0.0174 0.9998 0.0100
vn -0.0100 0.9998 -0.0174
vn -0.0000 0.9998 -0.0200
vn -0.0200 0.9998 -0.0000
vn -0.0174 0.9998 -0.0100
vn -0.0000 0.9998 0.0200
vn 0.0100 0.9998 -0.0174
vn 0.0173 0.9998 -0.0100
vn 0.0173 0.9998 0.0100
vn 0.0100 0.9998 0.0174
vn 0.0200 0.9998 -0.0000
vn -0.0000 -1.0000 -0.0000
vt 0.416667 1.000000
vt 0.500000 1.000000
vt 0.666667 1.000000
vt 0.750000 1.000000
vt 0.750000 0.500000
vt 0.666667 0.500000
vt 0.583333 1.000000
vt 0.583333 0.500000
vt 0.500000 0.500000
vt 0.416667 0.500000
vt 0.333333 1.000000
vt 0.333333 0.500000
vt 0.250000 1.000000
vt 0.250000 0.500000
s 1
usemtl Material.001
f 13/1/1 11/2/2 18/2/2 3/1/1
f 7/3/3 5/4/4 21/4/5 20/3/3
f 4/5/4 5/4/4 7/3/3 6/6/5
f 6/6/6 7/3/3 9/7/6 8/8/6
f 8/8/7 9/7/7 11/2/2 10/9/2
f 10/9/2 11/2/2 13/1/1 12/10/1
f 12/10/8 13/1/8 15/11/9 14/12/8
f 14/12/10 15/11/9 17/13/11 16/14/11
f 17/13/11 15/11/9 2/11/9 1/13/10
f 9/7/6 7/3/3 20/3/3 19/7/6
f 11/2/2 9/7/7 19/7/7 18/2/2
f 15/11/9 13/1/8 3/1/8 2/11/9
f 20/3/3 21/4/5 28/4/5 27/3/3
f 3/1/1 18/2/2 25/2/2 24/1/12
f 18/2/2 19/7/7 26/7/13 25/2/2
f 19/7/6 20/3/3 27/3/3 26/7/13
f 2/11/9 3/1/8 24/1/12 23/11/9
f 1/13/10 2/11/9 23/11/9 22/13/10
f 22/13/10 23/11/9 30/11/9 29/13/11
f 27/3/3 28/4/5 35/4/4 34/3/3
f 24/1/12 25/2/2 32/2/2 31/1/12
f 25/2/2 26/7/13 33/7/13 32/2/2
f 26/7/13 27/3/3 34/3/3 33/7/13
f 23/11/9 24/1/12 31/1/12 30/11/9
f 34/3/3 35/4/4 42/4/4 41/3/3
f 31/1/12 32/2/2 39/2/2 38/1/12
f 32/2/2 33/7/13 40/7/13 39/2/2
f 33/7/13 34/3/3 41/3/3 40/7/13
f 30/11/9 31/1/12 38/1/12 37/11/9
f 29/13/11 30/11/9 37/11/9 36/13/11
f 41/3/3 42/4/4 49/4/4 48/3/3
f 38/1/12 39/2/2 46/2/2 45/1/12
f 39/2/2 40/7/13 47/7/13 46/2/2
f 40/7/13 41/3/3 48/3/3 47/7/13
f 37/11/9 38/1/12 45/1/12 44/11/9
f 36/13/11 37/11/9 44/11/9 43/13/11
f 48/3/3 49/4/4 56/4/4 55/3/5
f 45/1/12 46/2/2 53/2/2 52/1/12
f 46/2/2 47/7/13 54/7/13 53/2/2
f 47/7/13 48/3/3 55/3/6 54/7/13
f 44/11/9 45/1/12 52/1/12 51/11/8
f 43/13/11 44/11/9 51/11/10 50/13/11
f 52/1/14 53/2/15 60/2/16 59/1/17
f 53/2/15 54/7/18 61/7/19 60/2/16
f 54/7/18 55/3/20 62/3/21 61/7/19
f 51/11/22 52/1/14 59/1/17 58/11/23
f 50/13/24 51/11/22 58/11/23 57/13/25
f 55/3/20 56/4/26 63/4/27 62/3/21
f 73/1/28 65/1/28 76/2/29 71/2/29
f 67/3/30 78/3/30 21/4/31 5/4/4
f 4/5/4 66/6/31 67/3/30 5/4/4
f 66/6/32 68/8/32 69/7/32 67/3/30
f 68/8/33 70/9/29 71/2/29 69/7/33
f 70/9/29 72/10/28 73/1/28 71/2/29
f 72/10/34 74/12/34 75/11/35 73/1/34
f 74/12/36 16/14/11 17/13/11 75/11/35
f 17/13/11 1/13/36 64/11/35 75/11/35
f 69/7/32 77/7/32 78/3/30 67/3/30
f 71/2/29 76/2/29 77/7/33 69/7/33
f 75/11/35 64/11/35 65/1/34 73/1/34
f 78/3/30 83/3/30 28/4/31 21/4/31
f 65/1/28 80/1/37 81/2/29 76/2/29
f 76/2/29 81/2/29 82/7/38 77/7/33
f 77/7/32 82/7/38 83/3/30 78/3/30
f 64/11/35 79/11/35 80/1/37 65/1/34
f 1/13/36 22/13/36 79/11/35 64/11/35
f 22/13/36 29/13/11 84/11/35 79/11/35
f 83/3/30 88/3/30 35/4/4 28/4/31
f 80/1/37 85/1/37 86/2/29 81/2/29
f 81/2/29 86/2/29 87/7/38 82/7/38
f 82/7/38 87/7/38 88/3/30 83/3/30
f 79/11/35 84/11/35 85/1/37 80/1/37
f 88/3/30 93/3/30 42/4/4 35/4/4
f 85/1/37 90/1/37 91/2/29 86/2/29
f 86/2/29 91/2/29 92/7/38 87/7/38
f 87/7/38 92/7/38 93/3/30 88/3/30
f 84/11/35 89/11/35 90/1/37 85/1/37
f 29/13/11 36/13/11 89/11/35 84/11/35
f 93/3/30 98/3/30 49/4/4 42/4/4
f 90/1/37 95/1/37 96/2/29 91/2/29
f 91/2/29 96/2/29 97/7/38 92/7/38
f 92/7/38 97/7/38 98/3/30 93/3/30
f 89/11/35 94/11/35 95/1/37 90/1/37
f 36/13/11 43/13/11 94/11/35 89/11/35
f 98/3/30 103/3/31 56/4/4 49/4/4
f 95/1/37 100/1/37 101/2/29 96/2/29
f 96/2/29 101/2/29 102/7/38 97/7/38
f 97/7/38 102/7/38 103/3/32 98/3/30
f 94/11/35 99/11/34 100/1/37 95/1/37
f 43/13/11 50/13/11 99/11/36 94/11/35
f 100/1/39 105/1/40 106/2/41 101/2/42
f 101/2/42 106/2/41 107/7/43 102/7/44
f 102/7/44 107/7/43 108/3/45 103/3/46
f 99/11/47 104/11/48 105/1/40 100/1/39
f 50/13/24 57/13/25 104/11/48 99/11/47
f 103/3/46 108/3/45 63/4/27 56/4/26
f 108/3/45 107/7/43 119/7/49 120/3/50
f 62/3/21 63/4/27 115/4/51 114/3/52
f 107/7/43 106/2/41 118/2/53 119/7/49
f 58/11/23 59/1/17 111/1/54 110/11/55
f 63/4/27 108/3/45 120/3/50 115/4/51
f 105/1/40 104/11/48 116/11/56 117/1/57
f 59/1/17 60/2/16 112/2/58 111/1/54
f 57/13/25 58/11/23 110/11/55 109/13/59
f 106/2/41 105/1/40 117/1/57 118/2/53
f 61/7/19 62/3/21 114/3/52 113/7/60
f 104/11/48 57/13/25 109/13/59 116/11/56
f 60/2/16 61/7/19 113/7/60 112/2/58
f 110/11/55 111/1/54 123/1/61 122/11/62
f 118/2/53 117/1/57 129/1/63 130/2/64
f 116/11/56 109/13/59 121/13/65 128/11/66
f 111/1/54 112/2/58 124/2/67 123/1/61
f 120/3/50 119/7/49 131/7/68 132/3/69
f 109/13/59 110/11/55 122/11/62 121/13/65
f 119/7/49 118/2/53 130/2/64 131/7/68
f 113/7/60 114/3/52 126/3/70 125/7/71
f 115/4/51 120/3/50 132/3/69 127/4/72
f 112/2/58 113/7/60 125/7/71 124/2/67
f 117/1/57 116/11/56 128/11/66 129/1/63
f 114/3/52 115/4/51 127/4/72 126/3/70
f 123/1/61 124/2/67 136/2/73 135/1/74
f 132/3/69 131/7/68 143/7/75 144/3/76
f 121/13/65 122/11/62 134/11/77 133/13/78
f 131/7/68 130/2/64 142/2/79 143/7/75
f 125/7/71 126/3/70 138/3/80 137/7/81
f 127/4/72 132/3/69 144/3/76 139/4/82
f 124/2/67 125/7/71 137/7/81 136/2/73
f 129/1/63 128/11/66 140/11/83 141/1/84
f 126/3/70 127/4/72 139/4/82 138/3/80
f 122/11/62 123/1/61 135/1/74 134/11/77
f 130/2/64 129/1/63 141/1/84 142/2/79
f 128/11/66 121/13/65 133/13/78 140/11/83
f 135/1/85 136/2/86 148/2/86 147/1/85
f 144/3/87 143/7/88 155/7/88 156/3/87
f 133/13/89 134/11/90 146/11/90 145/13/89
f 143/7/88 142/2/91 154/2/91 155/7/88
f 137/7/92 138/3/93 150/3/93 149/7/92
f 139/4/94 144/3/87 156/3/87 151/4/94
f 136/2/86 137/7/92 149/7/92 148/2/86
f 141/1/95 140/11/96 152/11/96 153/1/95
f 138/3/93 139/4/94 151/4/94 150/3/93
f 134/11/90 135/1/85 147/1/85 146/11/90
f 142/2/91 141/1/95 153/1/95 154/2/91
f 140/11/96 133/13/89 145/13/89 152/11/96
f 6/6/157 8/8/157 10/9/157 12/10/157 14/12/157 16/14/157 74/12/157 72/10/157 70/9/157 68/8/157 66/6/157 4/5/157
usemtl Material
f 152/11/97 145/13/98 157/13/98 164/11/97
f 147/1/99 148/2/100 160/2/100 159/1/99
f 156/3/101 155/7/102 167/7/102 168/3/101
f 145/13/98 146/11/103 158/11/103 157/13/98
f 155/7/102 154/2/104 166/2/104 167/7/102
f 149/7/105 150/3/106 162/3/106 161/7/105
f 151/4/107 156/3/101 168/3/101 163/4/107
f 148/2/100 149/7/105 161/7/105 160/2/100
f 153/1/108 152/11/97 164/11/97 165/1/108
f 150/3/106 151/4/107 163/4/107 162/3/106
f 146/11/103 147/1/99 159/1/99 158/11/103
f 154/2/104 153/1/108 165/1/108 166/2/104
f 164/11/109 157/13/110 169/13/111 176/11/112
f 159/1/113 160/2/114 172/2/115 171/1/116
f 168/3/117 167/7/118 179/7/119 180/3/120
f 157/13/110 158/11/121 170/11/122 169/13/111
f 167/7/118 166/2/123 178/2/124 179/7/119
f 161/7/125 162/3/126 174/3/127 173/7/128
f 163/4/129 168/3/117 180/3/120 175/4/130
f 160/2/114 161/7/125 173/7/128 172/2/115
f 165/1/131 164/11/109 176/11/112 177/1/132
f 162/3/126 163/4/129 175/4/130 174/3/127
f 158/11/121 159/1/113 171/1/116 170/11/122
f 166/2/123 165/1/131 177/1/132 178/2/124
f 178/2/124 177/1/132 189/1/133 190/2/134
f 176/11/112 169/13/111 181/13/135 188/11/136
f 171/1/116 172/2/115 184/2/137 183/1/138
f 180/3/120 179/7/119 191/7/139 192/3/140
f 169/13/111 170/11/122 182/11/141 181/13/135
f 179/7/119 178/2/124 190/2/134 191/7/139
f 173/7/128 174/3/127 186/3/142 185/7/143
f 175/4/130 180/3/120 192/3/140 187/4/144
f 172/2/115 173/7/128 185/7/143 184/2/137
f 177/1/132 176/11/112 188/11/136 189/1/133
f 174/3/127 175/4/130 187/4/144 186/3/142
f 170/11/122 171/1/116 183/1/138 182/11/141
f 182/11/141 183/1/138 195/1/145 194/11/146
f 190/2/134 189/1/133 201/1/147 202/2/148
f 188/11/136 181/13/135 193/13/149 200/11/150
f 183/1/138 184/2/137 196/2/151 195/1/145
f 192/3/140 191/7/139 203/7/152 204/3/153
f 181/13/135 182/11/141 194/11/146 193/13/149
f 191/7/139 190/2/134 202/2/148 203/7/152
f 185/7/143 186/3/142 198/3/154 197/7/155
f 187/4/144 192/3/140 204/3/153 199/4/156
f 184/2/137 185/7/143 197/7/155 196/2/151
f 189/1/133 188/11/136 200/11/150 201/1/147
f 186/3/142 187/4/144 199/4/156 198/3/154
f 194/11/146 195/1/145 196/2/151 197/7/155 198/3/154 199/4/156 204/3/153 203/7/152 202/2/148 201/1/147 200/11/150 193/13/149
